<svg fill="none" height="26" viewBox="0 0 27 26" width="27" xmlns="http://www.w3.org/2000/svg">
    <path
        d="M13.5005 4.96231C15.3632 4.93402 17.1646 5.61902 18.5267 6.87356L22.1955 3.33237C19.8417 1.15528 16.7259 -0.0385234 13.5005 0.000948529C11.0905 0.000398862 8.72797 0.661603 6.67696 1.91062C4.62596 3.15963 2.96738 4.94721 1.88672 7.07344L6.09047 10.2951C6.60448 8.75231 7.59614 7.40774 8.92559 6.45097C10.255 5.49421 11.8552 4.97351 13.5005 4.96231Z"
        fill="#E43E2B" />
    <path
        d="M25.98 13.1185C25.9953 12.2364 25.903 11.3556 25.705 10.4953H13.5V15.258H20.665C20.5291 16.093 20.2235 16.8923 19.7666 17.6077C19.3097 18.3231 18.7109 18.9399 18.0062 19.4211L22.1087 22.5575C23.3873 21.3391 24.3928 19.8694 25.0602 18.2436C25.7277 16.6178 26.0423 14.8718 25.9837 13.1185H25.98Z"
        fill="#3B7DED" />
    <path
        d="M6.10543 15.3706C5.8212 14.5537 5.67467 13.6963 5.67168 12.8325C5.67686 11.9702 5.81814 11.1139 6.09043 10.2945L1.88668 7.07288C0.97492 8.85968 0.5 10.8325 0.5 12.8332C0.5 14.8338 0.97492 16.8066 1.88668 18.5934L6.10543 15.3706Z"
        fill="#F0B501" />
    <path
        d="M13.5004 25.6651C16.667 25.7535 19.7476 24.6412 22.1091 22.557L18.0066 19.4205C16.6764 20.3007 15.1011 20.7493 13.5004 20.7037C11.8565 20.6941 10.2575 20.1737 8.93013 19.2165C7.60275 18.2593 6.61443 16.9138 6.10536 15.371L1.90161 18.5938C2.97936 20.7191 4.63522 22.5063 6.68375 23.7552C8.73229 25.0041 11.0926 25.6654 13.5004 25.6651Z"
        fill="#2BA24C" />
</svg>
